<?xml version="1.0" encoding="UTF-8"?>
<svg version="1.1" xmlns="http://www.w3.org/2000/svg" width="512" height="512">
<path d="M0 0 C0.6707959 0.22236328 1.3415918 0.44472656 2.03271484 0.67382812 C26.18649877 8.78765878 49.04863711 21.18561089 69 37 C70.25296875 37.96486328 70.25296875 37.96486328 71.53125 38.94921875 C78.35499275 44.27216998 84.73097572 50.04404044 91 56 C91.53560547 56.50692383 92.07121094 57.01384766 92.62304688 57.53613281 C100.36681808 64.91619538 107.26303904 72.64612869 113.66162109 81.21728516 C114.99065497 82.98755247 116.34611651 84.73463894 117.70703125 86.48046875 C125.56030366 96.69366077 131.93412278 107.65004117 138 119 C138.40992188 119.76231934 138.81984375 120.52463867 139.2421875 121.31005859 C153.07710081 147.47684723 161.26449789 177.60925636 164 207 C164.11085938 208.12921875 164.22171875 209.2584375 164.3359375 210.421875 C169.79261371 274.42721214 149.13999713 337.9175013 108.41357422 387.32519531 C104.13363717 392.39607064 99.59657852 397.21719075 95 402 C94.48179687 402.54543457 93.96359375 403.09086914 93.4296875 403.65283203 C86.05246543 411.39119275 78.332997 418.27658902 69.76513672 424.67041016 C68.04262464 425.96789297 66.35036371 427.29754294 64.66015625 428.63671875 C15.24223168 467.14190066 -50.74585614 480.25391148 -112 473 C-141.18028069 469.11638465 -169.08398799 459.86413618 -195 446 C-196.15628906 445.38640625 -197.31257813 444.7728125 -198.50390625 444.140625 C-225.65532587 429.19035527 -251.08305529 407.61481962 -270 383 C-270.42104004 382.45537109 -270.84208008 381.91074219 -271.27587891 381.34960938 C-278.95552767 371.3568134 -285.6625853 360.88664806 -292 350 C-292.3619043 349.38753418 -292.72380859 348.77506836 -293.09667969 348.14404297 C-323.76758014 295.7980612 -330.66684479 228.92829036 -315.65234375 170.62109375 C-307.10091158 138.92587727 -293.45971634 108.81188704 -273 83 C-272.03513672 81.74703125 -272.03513672 81.74703125 -271.05078125 80.46875 C-265.72783002 73.64500725 -259.95595956 67.26902428 -254 61 C-253.49307617 60.46439453 -252.98615234 59.92878906 -252.46386719 59.37695312 C-245.08380462 51.63318192 -237.35387131 44.73696096 -228.78271484 38.33837891 C-227.01244753 37.00934503 -225.26536106 35.65388349 -223.51953125 34.29296875 C-213.30633923 26.43969634 -202.34995883 20.06587722 -191 14 C-190.23768066 13.59007813 -189.47536133 13.18015625 -188.68994141 12.7578125 C-131.39448916 -17.53545833 -60.85056751 -20.57605167 0 0 Z " fill="#2D4456" transform="translate(335,25)"/>
<path d="M0 0 C1.43020226 -0.01906403 1.43020226 -0.01906403 2.88929749 -0.03851318 C41.4684336 -0.45189107 77.55680796 4.07012502 112.1875 22.2734375 C113.55391564 22.95597452 114.92114891 23.63687636 116.2890625 24.31640625 C135.77438152 34.14399555 152.36006406 47.33948585 168.1875 62.2734375 C169.0434375 63.07523438 169.899375 63.87703125 170.78125 64.703125 C177.66361261 71.34591169 183.44338249 78.65623819 189.1875 86.2734375 C189.8990625 87.2015625 190.610625 88.1296875 191.34375 89.0859375 C216.18069866 122.20186905 232.04901675 164.50498864 232.42578125 206.03125 C232.43552979 206.92928345 232.44527832 207.82731689 232.45532227 208.75256348 C232.61809697 227.60757101 232.72590758 245.85682001 228.1875 264.2734375 C228.01089844 265.04010742 227.83429688 265.80677734 227.65234375 266.59667969 C221.91656592 291.20741531 211.77627751 316.57362244 197.1875 337.2734375 C193.98762522 335.89811335 192.27277239 334.42998439 190.125 331.7109375 C185.71881582 326.50448483 180.52298676 322.48527223 175.1875 318.2734375 C174.41792969 317.62632812 173.64835937 316.97921875 172.85546875 316.3125 C152.85921812 299.62057018 128.76972638 287.60849548 104.31396484 279.02539062 C101.56519652 278.0533807 98.84820962 277.00205045 96.125 275.9609375 C90.59351814 273.95999953 84.91423345 272.592685 79.1875 271.2734375 C79.1875 270.2834375 79.1875 269.2934375 79.1875 268.2734375 C81.20703125 266.6171875 81.20703125 266.6171875 84 264.7734375 C108.80300512 247.27477448 122.65508921 219.60715608 127.78833008 190.21435547 C131.79877676 160.66705226 124.33351723 131.55202292 107.11328125 107.359375 C105.20177635 104.93337861 103.22107248 102.59752034 101.1875 100.2734375 C100.30384766 99.17515625 100.30384766 99.17515625 99.40234375 98.0546875 C81.89486743 76.9416375 54.03984407 64.41773496 27.1875 61.2734375 C-3.77383018 58.82817266 -33.65173692 67.21178045 -57.5546875 87.328125 C-58.29976562 87.97007813 -59.04484375 88.61203125 -59.8125 89.2734375 C-60.55757812 89.87414062 -61.30265625 90.47484375 -62.0703125 91.09375 C-82.32453344 107.96050541 -94.93693556 135.4291901 -97.8125 161.2734375 C-100.26866737 193.79393682 -91.49188269 224.79958802 -70.18847656 249.70263672 C-63.4790429 257.36205762 -56.22425692 263.54832538 -47.8125 269.2734375 C-50.04988832 271.51082582 -51.19491922 271.82690843 -54.1953125 272.6484375 C-55.10297363 272.90592773 -56.01063477 273.16341797 -56.94580078 273.42871094 C-57.93306152 273.7074707 -58.92032227 273.98623047 -59.9375 274.2734375 C-95.44849673 284.73854331 -132.21588364 302.87073386 -157.8125 330.2734375 C-160.74130354 333.33536847 -162.99712067 335.49399588 -166.8125 337.2734375 C-181.80050822 312.94184118 -193.40432237 287.44596381 -198.8125 259.2734375 C-199.0020224 258.3194809 -199.0020224 258.3194809 -199.19537354 257.34625244 C-201.66853585 244.62823492 -202.2829734 232.20588262 -202.20361328 219.26611328 C-202.18747921 216.14441503 -202.20358894 213.02400403 -202.22265625 209.90234375 C-202.23528459 198.01637718 -201.37035496 186.87875466 -198.8125 175.2734375 C-198.61914062 174.30857422 -198.42578125 173.34371094 -198.2265625 172.34960938 C-194.21772895 152.62192847 -187.4006998 133.95409612 -177.8125 116.2734375 C-177.47138184 115.62745605 -177.13026367 114.98147461 -176.77880859 114.31591797 C-162.41345239 87.1308028 -142.11522871 62.84164398 -117.41601562 44.46679688 C-115.93972091 43.36811713 -114.47698343 42.25128236 -113.015625 41.1328125 C-84.23101388 19.50177337 -50.91691082 7.72497532 -15.8125 1.2734375 C-14.90943115 1.09240479 -14.0063623 0.91137207 -13.07592773 0.72485352 C-8.71106573 0.1210808 -4.40208606 0.05259744 0 0 Z " fill="#94D997" transform="translate(240.8125,38.7265625)"/>
<path d="M0 0 C1.54406311 0.30444084 3.08832296 0.60788619 4.6328125 0.91015625 C22.18534395 4.52735401 38.84712492 11.38322713 55 19 C55.69077637 19.32081543 56.38155273 19.64163086 57.09326172 19.97216797 C67.36778821 24.76954588 76.80356462 30.36793136 86 37 C86.57959473 37.41588379 87.15918945 37.83176758 87.75634766 38.26025391 C98.16227631 45.8263351 107.09080257 54.75055708 116 64 C114.66805465 67.92126769 113.05334647 70.33093852 110.140625 73.2578125 C109.36154785 74.0430127 108.5824707 74.82821289 107.77978516 75.63720703 C106.94495605 76.45817871 106.11012695 77.27915039 105.25 78.125 C104.39325684 78.97304199 103.53651367 79.82108398 102.65380859 80.69482422 C95.81723474 87.3756442 88.75707728 93.42761702 81 99 C79.43958984 100.14275391 79.43958984 100.14275391 77.84765625 101.30859375 C43.48961369 125.81365006 2.6200062 140.8546691 -39.79296875 141.23828125 C-40.69360046 141.2480751 -41.59423218 141.25786896 -42.52215576 141.26795959 C-79.50183414 141.58780686 -79.50183414 141.58780686 -97 137 C-97.88010742 136.78037598 -98.76021484 136.56075195 -99.66699219 136.33447266 C-118.04698632 131.69183202 -135.27964435 124.88709722 -152 116 C-152.65709961 115.65743164 -153.31419922 115.31486328 -153.99121094 114.96191406 C-164.80092431 109.30119056 -174.47364748 102.61059154 -184 95 C-184.5681543 94.54898926 -185.13630859 94.09797852 -185.72167969 93.63330078 C-192.55977316 88.1607969 -198.9435615 82.26438744 -205.1875 76.125 C-206.16021851 75.17886841 -206.16021851 75.17886841 -207.15258789 74.21362305 C-207.75578857 73.60945557 -208.35898926 73.00528809 -208.98046875 72.3828125 C-209.51567139 71.85059082 -210.05087402 71.31836914 -210.60229492 70.77001953 C-212.27465389 68.65218502 -213.10249915 66.53180046 -214 64 C-203.69296308 53.23036518 -193.50401949 43.17106905 -181 35 C-180.34161133 34.56171875 -179.68322266 34.1234375 -179.00488281 33.671875 C-153.02145817 16.52207552 -124.36070663 5.41680377 -94 -1 C-93.14825195 -1.18079102 -92.29650391 -1.36158203 -91.41894531 -1.54785156 C-62.37188119 -7.31598155 -28.84872271 -6.25147945 0 0 Z " fill="#FEFEFE" transform="translate(305,332)"/>
<path d="M0 0 C2.52280699 2.22510813 4.96385589 4.51484992 7.39453125 6.83984375 C8.08289063 7.4534375 8.77125 8.06703125 9.48046875 8.69921875 C22.67435463 20.90225944 32.25898537 40.40071955 33.6640625 58.26708984 C33.75921953 61.83795666 33.75540206 65.39314296 33.70703125 68.96484375 C33.71025391 70.16238281 33.71347656 71.35992187 33.71679688 72.59375 C33.65657365 82.59080512 32.25172267 91.46279487 28.64453125 100.77734375 C28.38067627 101.4633667 28.11682129 102.14938965 27.8449707 102.85620117 C23.6255635 113.5658466 18.0330999 122.21434499 10.39453125 130.83984375 C9.84152344 131.47664062 9.28851563 132.1134375 8.71875 132.76953125 C-5.79759802 148.40252142 -28.21369053 157.97047123 -49.26171875 159.1328125 C-75.77459749 160.10346705 -97.08707407 150.97211226 -116.87109375 133.8828125 C-131.21796921 120.4679191 -141.80767408 99.54219551 -142.74584961 79.90087891 C-143.5160071 53.60797103 -139.16627646 33.66740978 -122.60546875 12.83984375 C-121.84234375 11.80859375 -121.07921875 10.77734375 -120.29296875 9.71484375 C-89.67563115 -23.03858717 -35.1970537 -29.18136537 0 0 Z " fill="#FEFEFE" transform="translate(310.60546875,143.16015625)"/>
<path d="M0 0 C16.73948281 8.71848063 30.01268524 21.508867 43 35 C41.66805465 38.92126769 40.05334647 41.33093852 37.140625 44.2578125 C36.36154785 45.0430127 35.5824707 45.82821289 34.77978516 46.63720703 C33.94495605 47.45817871 33.11012695 48.27915039 32.25 49.125 C30.96488525 50.39706299 30.96488525 50.39706299 29.65380859 51.69482422 C22.81723474 58.3756442 15.75707728 64.42761702 8 70 C6.43958984 71.14275391 6.43958984 71.14275391 4.84765625 72.30859375 C-29.51038631 96.81365006 -70.3799938 111.8546691 -112.79296875 112.23828125 C-114.14391632 112.25297203 -114.14391632 112.25297203 -115.52215576 112.26795959 C-152.50183414 112.58780686 -152.50183414 112.58780686 -170 108 C-170.88010742 107.78037598 -171.76021484 107.56075195 -172.66699219 107.33447266 C-191.04698632 102.69183202 -208.27964435 95.88709722 -225 87 C-225.65709961 86.65743164 -226.31419922 86.31486328 -226.99121094 85.96191406 C-242.00758928 78.09828597 -255.04795044 67.86655005 -268 57 C-264.4336539 55.81121797 -263.82920138 56.22411348 -260.484375 57.66015625 C-259.11937866 58.22839111 -259.11937866 58.22839111 -257.72680664 58.80810547 C-256.74446045 59.22205566 -255.76211426 59.63600586 -254.75 60.0625 C-243.05714089 64.81211737 -231.29957189 68.22343507 -219 71 C-218.26201172 71.16725586 -217.52402344 71.33451172 -216.76367188 71.50683594 C-160.03495727 84.00866167 -98.12683149 72.46704358 -49.05859375 41.55859375 C-37.79129126 34.26621682 -27.14237293 26.18835367 -17.2734375 17.0859375 C-15.1610576 15.1477745 -13.00001928 13.28976729 -10.8125 11.4375 C-6.8072476 7.9624745 -3.38469479 4.07221092 0 0 Z " fill="#ECECEC" transform="translate(378,361)"/>
<path d="M0 0 C4.46973306 3.49976166 7.94768891 7.11442937 11.375 11.625 C11.85050293 12.2425415 12.32600586 12.86008301 12.81591797 13.49633789 C14.21838552 15.32511967 15.60992288 17.1617924 17 19 C18.07507813 20.40185547 18.07507813 20.40185547 19.171875 21.83203125 C43.9970147 54.9487676 59.86156672 97.23705796 60.23828125 138.7578125 C60.25290405 140.10486267 60.25290405 140.10486267 60.26782227 141.47912598 C60.43059697 160.33413351 60.53840758 178.58338251 56 197 C55.82339844 197.76666992 55.64679688 198.53333984 55.46484375 199.32324219 C49.72906592 223.93397781 39.58877751 249.30018494 25 270 C21.80012522 268.62467585 20.08527239 267.15654689 17.9375 264.4375 C13.53164952 259.23144163 8.33650679 255.20991091 3 251 C2.195625 250.3296875 1.39125 249.659375 0.5625 248.96875 C-6.23253268 243.33602554 -13.52078004 238.65565277 -21 234 C-19.47881016 229.56180326 -17.04449781 225.99397829 -14.375 222.1875 C-9.10911017 214.47023124 -4.92515789 206.46375122 -1 198 C-0.6999707 197.36513672 -0.39994141 196.73027344 -0.09082031 196.07617188 C5.25265593 184.71327256 9.27477724 172.98019938 13 161 C13.391875 159.75992188 13.78375 158.51984375 14.1875 157.2421875 C19.46974539 139.12573653 21.37798541 120.67737138 21.3125 101.875 C21.31004272 101.15090942 21.30758545 100.42681885 21.30505371 99.68078613 C21.21749932 85.27849797 20.81000908 70.94544637 17.8125 56.8125 C17.48149292 55.21994385 17.48149292 55.21994385 17.14379883 53.59521484 C13.59284999 36.96619962 8.79666201 21.35162283 1.75268555 5.86499023 C0.97280751 3.93262296 0.45832035 2.03050826 0 0 Z " fill="#7ECB7E" transform="translate(413,106)"/>
<path d="M0 0 C5.29781451 1.49632929 8.48239382 4.94433239 12.25 8.75 C13.24471313 9.7543811 13.24471313 9.7543811 14.25952148 10.77905273 C30.22649645 27.33790191 38.62387417 48.13313097 38.3125 71.125 C38.31572266 72.32253906 38.31894531 73.52007812 38.32226562 74.75390625 C38.2620424 84.75096137 36.85719142 93.62295112 33.25 102.9375 C32.98614502 103.62352295 32.72229004 104.3095459 32.45043945 105.01635742 C28.23103225 115.72600285 22.63856865 124.37450124 15 133 C14.44699219 133.63679687 13.89398438 134.27359375 13.32421875 134.9296875 C-1.19212927 150.56267767 -23.60822178 160.13062748 -44.65625 161.29296875 C-70.96431199 162.25612482 -93.01728941 153.30098113 -112.40625 135.83203125 C-116.49964741 131.88373561 -119.84762305 127.72856543 -123 123 C-120.39937213 121.69968607 -119.55165879 122.24612291 -116.75 122.9375 C-90.33362905 127.94452456 -63.05322627 121.51511814 -40.8671875 106.7734375 C-16.7296678 89.95542502 -3.44159444 64.63066005 1.6875 36.1875 C2.91168596 24.02215199 1.79256321 12.03578153 0 0 Z " fill="#ECECEC" transform="translate(306,141)"/>
<path d="M0 0 C4.30813166 3.32264654 7.65092691 6.69575118 11 10.9375 C9.77410156 10.64875 8.54820312 10.36 7.28515625 10.0625 C-24.61374561 3.00071929 -55.78399007 7.05873067 -83.55859375 24.64453125 C-88.31401346 27.75600537 -92.69720436 31.23024701 -97 34.9375 C-97.74507813 35.53820312 -98.49015625 36.13890625 -99.2578125 36.7578125 C-119.48001141 53.59790148 -132.18431151 81.11145357 -135 106.9375 C-135.88385287 119.80133552 -135.56184521 132.36551625 -132.55859375 144.92578125 C-132.03065974 147.77219467 -132.00376013 149.2654659 -133 151.9375 C-148.48678833 138.13405823 -159.04122332 116.28120527 -162 95.9375 C-163.73542884 64.90324503 -158.5183513 37.34020733 -137.375 13.5 C-135.92409524 11.97207804 -134.46647394 10.45048524 -133 8.9375 C-132.4740625 8.33808594 -131.948125 7.73867187 -131.40625 7.12109375 C-98.24934639 -29.33458343 -37.32304279 -28.27776858 0 0 Z " fill="#7ECB7E" transform="translate(278,93.0625)"/>
<path d="M0 0 C3.2268251 3.12273396 6.22326745 6.37582039 9.1875 9.75 C15.3806852 16.66572347 22.02499435 23.1730229 30 28 C27.76261168 30.23738832 26.61758078 30.55347093 23.6171875 31.375 C22.70952637 31.63249023 21.80186523 31.88998047 20.86669922 32.15527344 C19.87943848 32.4340332 18.89217773 32.71279297 17.875 33 C-17.63599673 43.46510581 -54.40338364 61.59729636 -80 89 C-82.92880354 92.06193097 -85.18462067 94.22055838 -89 96 C-94.6918579 86.75981366 -99.96776972 77.40279551 -104.6875 67.625 C-105.13335449 66.71596924 -105.57920898 65.80693848 -106.03857422 64.87036133 C-106.44221191 64.01853271 -106.84584961 63.1667041 -107.26171875 62.2890625 C-107.62225342 61.53318848 -107.98278809 60.77731445 -108.35424805 59.99853516 C-109 58 -109 58 -108 55 C-104.53509742 51.76262385 -100.73549955 48.91777826 -97 46 C-96.08734375 45.27296875 -95.1746875 44.5459375 -94.234375 43.796875 C-70.31830369 25.22517717 -42.1499075 12.32622862 -13.125 4.0625 C-12.3812915 3.85052979 -11.63758301 3.63855957 -10.87133789 3.42016602 C-7.17073409 2.41774995 -3.83902907 1.75159224 0 2 C0 1.34 0 0.68 0 0 Z " fill="#7ECB7E" transform="translate(163,280)"/>
<path d="M0 0 C8.95486149 4.49099871 17.51661862 9.44360683 25.9375 14.875 C26.83178711 15.44629639 27.72607422 16.01759277 28.64746094 16.60620117 C29.47407227 17.14607666 30.30068359 17.68595215 31.15234375 18.2421875 C31.89476318 18.7254248 32.63718262 19.20866211 33.40209961 19.70654297 C33.92940674 20.13338379 34.45671387 20.56022461 35 21 C35 21.66 35 22.32 35 23 C29.2797762 21.14336673 23.62829648 19.14162686 17.99267578 17.04296875 C9.41722475 13.85460262 0.98590755 10.81993064 -8 9 C-8 8.01 -8 7.02 -8 6 C-6.25 4.39453125 -6.25 4.39453125 -4 2.8125 C-3.2575 2.28269531 -2.515 1.75289063 -1.75 1.20703125 C-1.1725 0.80871094 -0.595 0.41039062 0 0 Z " fill="#7CC77E" transform="translate(328,301)"/>
</svg>
